<svg xmlns="https://www.w3.org/2000/svg" viewBox="0 0 22.82 22.82"><title>coffee</title><circle cx="11.41" cy="11.41" r="11.41" style="fill:#4182e4"/><path d="M15.24,11.81v1.12s2.26-.58,2.26.56c0,3.37-5.66,3.36-5.66,3.36V18s6.81,0,6.81-4.48C18.66,10.68,15.24,11.81,15.24,11.81Z" transform="translate(-0.59 -0.59)" style="fill:#c7c7c7"/><path d="M15.8,10.57h-9V11.8c0,3.72,1.13,7.34,4.53,7.34s4.53-3.61,4.53-7.34C15.83,11.56,15.8,10.57,15.8,10.57Z" transform="translate(-0.59 -0.59)" style="fill:#f5f5f5"/><g style="opacity:0.501961"><path d="M12.42,6.23c0.74-1.57-1.18-2.32-1.18-2.32a1.61,1.61,0,0,1,.17,2A3.87,3.87,0,0,0,10.29,7.4c-0.18,1.71,1.76,2.49,1.76,2.49a2,2,0,0,1-.6-2.1A8.53,8.53,0,0,1,12.42,6.23Z" transform="translate(-0.59 -0.59)" style="fill:#f5f5f5"/></g></svg>