<svg xmlns="http://www.w3.org/2000/svg" viewBox="0 0 26 26"><defs><style>.a{fill:#d2514b;}.a,.b{fill-rule:evenodd;}.b{fill:#fff;}</style></defs><title>life-ring</title><path class="a" d="M22.2,3.8a13,13,0,1,0,0,18.4A13,13,0,0,0,22.2,3.8ZM17.9,17.9a7,7,0,1,1,0-9.9A7,7,0,0,1,17.9,17.9Z"/><path class="b" d="M4.5,4.5A11.8,11.8,0,0,0,2.1,7.6L5.8,9.5A6.4,6.4,0,0,1,7.2,7.2,8.9,8.9,0,0,1,9.2,5.7L7.5,2.2A10.9,10.9,0,0,0,4.5,4.5ZM20.1,9.6l4-1.3a10.9,10.9,0,0,0-2.5-3.8,9.6,9.6,0,0,0-2.8-2.2L16.6,5.9a7.4,7.4,0,0,1,2.1,1.5A7.2,7.2,0,0,1,20.1,9.6ZM5.5,16.5,2,18.3a8.9,8.9,0,0,0,2.2,3.1,9.1,9.1,0,0,0,3.2,2.2l1.7-3.3A9.3,9.3,0,0,1,7,18.7,6.7,6.7,0,0,1,5.5,16.5Zm13.4,2.1a7.4,7.4,0,0,1-2.1,1.5l2,3.3a7.8,7.8,0,0,0,2.9-2.1,11.1,11.1,0,0,0,2.5-3.6l-4-1.2A4.3,4.3,0,0,1,18.9,18.6Z"/></svg>