<?xml version="1.0" encoding="UTF-8"?>
<svg viewBox="0 0 150 150" xmlns="http://www.w3.org/2000/svg" xmlns:xlink="http://www.w3.org/1999/xlink">
 <defs>
  <linearGradient id="a">
   <stop stop-color="#fff" stop-opacity=".5" offset="0"/>
   <stop stop-color="#fff" stop-opacity="0" offset="1"/>
  </linearGradient>
  <linearGradient id="c" x1=".03509" x2=".81579" y1=".85938" y2=".04688" xlink:href="#a"/>
  <linearGradient id="b" x1="-.94444" x2="4.1111" y1=".78125" y2=".375" xlink:href="#a"/>
 </defs>
 <path d="m98.82 62.146c-9.1035 18.229-30.549 22.254-51.743 16.303-20.809-9.2301-31.404-31.516-23.651-49.745 8.1392-14.565 29.392-21.29 51.357-14.181 20.809 9.2301 31.79 29.394 24.036 47.624z" fill="#eaffff" fill-rule="evenodd"/>
 <path d="m87.823 75.005c23.027-15.683 15.736-45.142-1.3609-59.772-23.143-18.851-54.302-4.7772-64.168 12.883 19.332-30.331 53.965-12.379 60.936-5.4516 8.4983 7.6219 24.303 36.234 4.5936 52.34z" fill="#7f7f7f" fill-rule="evenodd" stroke="#000" stroke-linejoin="bevel" stroke-width="2.5"/>
 <path d="m30.729 18.432c-22.496 14.851-17.814 44.559 3.945 60.793 24.182 17.168 39.276 4.6048 53.819-4.6771-23.177 14.619-39.641 4.5234-48.503 0.11449-12.043-6.7294-29.03-33.722-9.261-56.231z" fill="#bfbfbf" fill-rule="evenodd" stroke="#000" stroke-linejoin="bevel" stroke-width="2.5"/>
 <path d="m22.758 27.919c-11.572 14.657-3.0858 34.136 5.7858 43.779 3.4715-6.943-19.865-22.179-5.7858-43.779z" fill="url(#b)" fill-rule="evenodd"/>
 <path d="m51.197 12.885c-23.336-0.38572-40.263 27.711-14.998 56.062 28.351-9.6431-21.067-47.768 14.998-56.062z" fill="#fff" fill-rule="evenodd"/>
 <path d="m82.241 79.943c14.722 13.199 30.967 51.02 41.12 55.081 8.1225 1.523 13.707-3.2998 13.961-12.438-1.523-11.422-38.328-37.059-46.958-48.481-1.7768 0.25383-7.1072 3.5536-8.1225 5.8381z" fill="#442400" fill-rule="evenodd" stroke="#000" stroke-linejoin="round" stroke-width="2.5"/>
 <path d="m88.552 84.547c10.099 13.177 29.506 48.097 33.952 48.262 0.50766-2.5383 3.9036-5.6537 8.4725-7.6843-14.722-12.691-19.406-9.4531-42.424-40.578z" fill="url(#c)" fill-rule="evenodd"/>
 <path d="m122.19 133.29c0.09102-2.7494 6.0225-9.7309 14.319-8.1305-2.0306 5.3304-4.6731 12.953-14.319 8.1305z" fill-opacity=".5" fill-rule="evenodd"/>
</svg>
