<svg xmlns="http://www.w3.org/2000/svg" fill="#666ee8" width="13" height="13" viewBox="0 0 24 24"><path d="M24 19a5.63 5.63 0 0 1-.17 1.2 6.77 6.77 0 0 1-.36 1.17 4.57 4.57 0 0 1-2.08 1.81 6.32 6.32 0 0 1-4.07.81 7.37 7.37 0 0 1-1-.21l-.81-.25-.95-.35-.84-.31a15.44 15.44 0 0 1-3-1.41 25.29 25.29 0 0 1-4.51-3.67 25.29 25.29 0 0 1-3.67-4.51 15.44 15.44 0 0 1-1.41-3l-.26-.87-.35-.95Q.43 8.2.27 7.65a7.37 7.37 0 0 1-.21-1A6.58 6.58 0 0 1 0 5.78a6.61 6.61 0 0 1 .87-3.17A4.57 4.57 0 0 1 2.68.53 6.77 6.77 0 0 1 3.84.17 5.63 5.63 0 0 1 5 0a1 1 0 0 1 .4.05 2.92 2.92 0 0 1 .9 1.3l.52.92.6 1.08q.27.49.53.91l.3.43a4.76 4.76 0 0 1 .37.61 1.11 1.11 0 0 1 .12.49 1.41 1.41 0 0 1-.49.85 8.31 8.31 0 0 1-1.06.94 10.27 10.27 0 0 0-1.06.9 1.3 1.3 0 0 0-.49.78 1.15 1.15 0 0 0 .09.38 3.72 3.72 0 0 0 .14.35q.06.12.24.41l.2.32a17.89 17.89 0 0 0 3 4 17.89 17.89 0 0 0 4 3l.32.2.37.21.35.14a1.15 1.15 0 0 0 .38.09 1.3 1.3 0 0 0 .78-.49 10.27 10.27 0 0 0 .9-1.06 8.31 8.31 0 0 1 .94-1.06 1.41 1.41 0 0 1 .85-.49 1.11 1.11 0 0 1 .49.12 4.76 4.76 0 0 1 .61.37l.43.25.91.53 1.08.6.92.51a2.92 2.92 0 0 1 1.3.9A1 1 0 0 1 24 19z"/></svg>