<svg xmlns="http://www.w3.org/2000/svg" viewBox="0 0 28 31"><defs><style>.a{opacity:0.25;}.b,.c,.d{fill-rule:evenodd;}.c{fill:#ffcf46;}.d{fill:#d2514b;}.e{opacity:0.15;}</style></defs><title>Shield</title><g class="a"><path class="b" d="M26,6H2A2.2,2.2,0,0,0,0,8V21a4.4,4.4,0,0,0,2,3l10.6,6.5A2.8,2.8,0,0,0,14,31a2.8,2.8,0,0,0,1.4-.5L26,24a4.4,4.4,0,0,0,2-3V8A2.2,2.2,0,0,0,26,6Z"/></g><path class="c" d="M25,0H3L0,3V20a4.4,4.4,0,0,0,2,3l10.6,6.5A2.8,2.8,0,0,0,14,30a2.8,2.8,0,0,0,1.4-.5L26,23a4.4,4.4,0,0,0,2-3V3Z"/><path class="d" d="M14,27h0ZM23,2H17L14,6,11,2H5L2,5V18a4.4,4.4,0,0,0,2,3l7.8,5L14,23l2.2,3L24,21a4.4,4.4,0,0,0,2-3V5ZM14,18a4.5,4.5,0,1,1,4.5-4.5A4.5,4.5,0,0,1,14,18Z"/><g class="e"><path class="b" d="M25,0H14V30l1.4-.5L26,23a4.4,4.4,0,0,0,2-3V3Z"/></g></svg>